<?xml version="1.0" encoding="UTF-8" standalone="no"?>

<svg id="player-action-previous"
     width="43px"
     height="43px"
     viewBox="0 0 43.179679 43.179699"
     version="1.1">
  <g id="layer1"
     transform="translate(458.7327,-419.34378)">
    <path d="M 21.589844,0 A 21.59008,21.59008 0 0 0 0,21.589844 21.59008,21.59008 0 0 0 21.589844,43.179688 21.59008,21.59008 0 0 0 43.179688,21.589844 21.59008,21.59008 0 0 0 21.589844,0 Z m -13.3300784,13.683594 0.8847656,0 0,7.644531 13.0957028,-7.644531 0,7.404297 12.679688,-7.404297 0,15.8125 -12.679688,-7.404297 0,7.404297 -13.0957028,-7.644532 0,7.644532 -0.8847656,0 0,-15.8125 z"
          transform="translate(-458.7327,419.34378)"
          id="path4605-7-7-3-8-79" />
  </g>
</svg>
