<?xml version="1.0" encoding="UTF-8" standalone="no"?>

<svg id="player-icon-next"
     width="43px"
     height="43px"
     viewBox="0 0 43.179679 43.179699"
     version="1.1">
  <g id="layer1"
     transform="translate(513.01841,-527.91521)">
    <path d="m -491.42857,527.91521 a 21.59008,21.59008 0 0 1 21.58984,21.5898 21.59008,21.59008 0 0 1 -21.58984,21.5899 21.59008,21.59008 0 0 1 -21.58984,-21.5899 21.59008,21.59008 0 0 1 21.58984,-21.5898 z m 13.33008,13.6836 -0.88477,0 0,7.6445 -13.0957,-7.6445 0,7.4043 -12.67969,-7.4043 0,15.8125 12.67969,-7.4043 0,7.4043 13.0957,-7.6445 0,7.6445 0.88477,0 0,-15.8125 z"
          id="path4605-7-7-3-8-7-0" />
  </g>
</svg>
